<svg width="26" height="27" viewBox="0 0 26 27" fill="none" xmlns="http://www.w3.org/2000/svg">
<g clip-path="url(#clip0_1501_23869)">
<path d="M13.0006 0.5C9.28627 0.5 6.25 3.53627 6.25 7.25058C6.25 10.9649 9.28627 14.0012 13.0006 14.0012C16.7149 14.0012 19.7511 10.9649 19.7511 7.25058C19.7511 3.53627 16.7149 0.5 13.0006 0.5Z" fill="#656F80"/>
<path d="M24.5867 19.396C24.4098 18.9538 24.174 18.5411 23.9087 18.1579C22.5527 16.1534 20.4598 14.8268 18.1015 14.5026C17.8067 14.4731 17.4825 14.532 17.2466 14.7089C16.0085 15.6227 14.5346 16.0944 13.0017 16.0944C11.4688 16.0944 9.99487 15.6227 8.75677 14.7089C8.52091 14.532 8.19665 14.4436 7.90189 14.5026C5.54361 14.8268 3.42118 16.1534 2.09466 18.1579C1.82936 18.5411 1.59351 18.9833 1.41667 19.396C1.32826 19.5729 1.35771 19.7792 1.44613 19.9561C1.68198 20.3688 1.97673 20.7816 2.24204 21.1353C2.65472 21.6954 3.09691 22.1965 3.59807 22.6681C4.01075 23.0808 4.48239 23.464 4.9541 23.8473C7.28287 25.5865 10.0833 26.5003 12.9722 26.5003C15.8611 26.5003 18.6616 25.5865 20.9904 23.8473C21.462 23.4936 21.9337 23.0808 22.3464 22.6681C22.818 22.1965 23.2897 21.6953 23.7024 21.1353C23.9972 20.752 24.2625 20.3688 24.4983 19.9561C24.6457 19.7792 24.6751 19.5728 24.5867 19.396Z" fill="#656F80"/>
</g>
<defs>
<clipPath id="clip0_1501_23869">
<rect width="26" height="26" fill="white" transform="translate(0 0.5)"/>
</clipPath>
</defs>
</svg>
